<?xml version="1.0" standalone="no"?>
<!DOCTYPE svg PUBLIC "-//W3C//DTD SVG 20010904//EN"
 "http://www.w3.org/TR/2001/REC-SVG-20010904/DTD/svg10.dtd">
<svg version="1.0" xmlns="http://www.w3.org/2000/svg"
 width="260.000000pt" height="260.000000pt" viewBox="0 0 260.000000 260.000000"
 preserveAspectRatio="xMidYMid meet">
<metadata>
Created by potrace 1.11, written by Peter Selinger 2001-2013
</metadata>
<g transform="translate(0.000000,260.000000) scale(0.100000,-0.100000)"
fill="#000000" stroke="none">
<path d="M0 1300 l0 -1300 1300 0 1300 0 0 1300 0 1300 -1300 0 -1300 0 0
-1300z m1772 739 c40 -20 43 -20 100 -4 81 23 111 22 144 -4 23 -18 39 -22 84
-19 32 1 54 -1 54 -7 -17 -123 -17 -123 15 -153 26 -23 36 -44 40 -84 1 -3 35
-48 76 -98 47 -57 74 -99 71 -109 -3 -9 -8 -28 -11 -43 -5 -19 -18 -31 -46
-42 -55 -22 -83 -20 -117 9 -40 34 -74 45 -136 45 -37 0 -58 -5 -67 -16 -21
-25 -23 -132 -5 -194 9 -29 16 -78 16 -107 0 -65 18 -104 57 -122 15 -7 35
-17 43 -21 18 -8 35 -72 52 -188 10 -66 10 -91 -1 -130 -7 -26 -18 -71 -25
-101 -6 -30 -17 -56 -23 -59 -7 -2 -26 11 -43 30 -26 28 -30 38 -25 68 4 19
14 48 23 65 20 37 22 129 3 173 -17 41 -49 49 -104 28 -52 -20 -94 -20 -127
-1 -35 20 -93 19 -121 -4 l-23 -18 47 -73 c26 -41 47 -80 47 -88 0 -29 -127
-122 -167 -122 -22 0 -100 49 -128 80 -22 25 -16 32 47 53 46 15 48 15 58 -4
15 -26 60 -26 60 1 0 10 -10 25 -22 31 -13 6 -46 33 -74 59 -28 27 -74 60
-103 74 -48 25 -52 25 -59 9 -11 -28 -7 -193 7 -240 7 -25 31 -64 60 -95 54
-60 121 -157 121 -175 0 -20 -46 -26 -91 -11 -40 13 -43 17 -70 93 -30 85 -47
105 -91 105 -31 0 -59 23 -82 67 -29 57 -103 103 -164 103 -39 0 -49 14 -61
87 -5 34 -16 72 -23 85 -25 46 -113 168 -121 168 -4 0 -25 -12 -47 -26 -22
-15 -42 -25 -45 -22 -3 2 1 19 7 36 16 41 2 67 -37 67 -32 0 -39 -9 -59 -86
-20 -71 -72 -150 -111 -168 -16 -7 -40 -23 -52 -34 -31 -27 -38 -16 -26 38 6
24 8 47 5 50 -3 2 -29 2 -58 -1 -45 -6 -62 -3 -107 19 -29 15 -64 38 -77 52
l-23 25 54 0 c67 0 90 12 54 28 -37 17 -31 39 14 53 22 7 55 24 73 39 35 29
81 105 92 153 6 26 5 27 -36 27 l-43 1 45 22 c25 13 69 39 99 58 53 33 57 34
156 34 l102 0 50 47 c75 70 118 88 208 88 41 0 75 3 75 6 0 3 -5 14 -11 25
-10 19 -9 20 18 6 78 -41 155 -39 168 4 8 23 -10 49 -33 49 -30 0 9 26 65 45
46 14 103 61 103 84 0 15 -25 31 -48 31 -35 0 -17 17 26 25 25 4 56 -1 96 -15
77 -26 98 -25 136 6 26 22 31 33 28 63 -2 30 -9 39 -37 52 -32 15 -33 17 -15
27 28 17 50 14 96 -9z"/>
<path d="M1094 1034 c36 -117 47 -151 53 -160 15 -21 58 -44 81 -44 23 0 24 3
17 38 -10 55 -33 88 -99 139 -41 33 -57 41 -52 27z"/>
</g>
</svg>
